<svg xmlns="http://www.w3.org/2000/svg" id="Layer_1" data-name="Layer 1" viewBox="0 0 546.26 204.27"><defs><style>.cls-1{fill:#231f20;}</style></defs><title>Logo1Logo - Black</title><polygon points="239.83 0 239.08 0 176.2 0 131.22 43.36 131.22 43.36 182.88 15.55 239.08 15.55 239.08 174.39 131.07 109.75 131.07 109.75 239.03 191.51 239.05 191.5 238.87 191.36 239.24 191.36 239.08 191.48 239.08 191.51 255.1 204.27 255.1 0 239.83 0"></polygon><polygon points="282.25 0 283 0 345.87 0 390.85 43.36 390.85 43.36 339.19 15.55 283 15.55 283 174.39 391 109.75 391 109.75 283.05 191.51 283.02 191.5 283.2 191.36 282.84 191.36 283 191.48 283 191.51 266.98 204.27 266.98 0 282.25 0"></polygon><path class="cls-1" d="M12.89,88.49c-6.62,0-11.52-5.22-11.52-12.11s4.9-11.62,11.52-11.62H25.75v4.15H12.89c-4.24,0-7.37,3.16-7.37,7.67s3.1,7.77,7.37,7.77H25.75v4.14Z"></path><path class="cls-1" d="M29.12,88.59V64.76h4.14V88.59Zm19.09,0V78.27H36.27V74.59H48.21V64.76h4.15V88.59Z"></path><path class="cls-1" d="M81.22,88.49l-3.56-6H66.43l2-3.36h7.28l-5.29-8.88L59.61,88.49H54.88L68.52,65.77a2.32,2.32,0,0,1,2-1.33,2.26,2.26,0,0,1,2,1.33L86.21,88.49Z"></path><path class="cls-1" d="M110.79,88.49l-6-6.59H95.91V78.24h9.89c3,0,4.54-1.7,4.54-4.76s-1.7-4.57-4.54-4.57H92.87V88.49H88.76V64.76h17c5.42,0,8.62,3.36,8.62,8.65,0,3.92-1.83,6.69-4.9,7.87l7.15,7.21Z"></path><path class="cls-1" d="M118.83,88.49V64.76H140v4.15H122.94V84.35H140v4.14ZM126,78.18v-3.5h13.15v3.5Z"></path><path class="cls-1" d="M151.21,88.49V68.91h-9V64.76h22.16v4.15h-9V88.49Z"></path><path class="cls-1" d="M175.76,88.49V68.91h-9V64.76h22.16v4.15h-9V88.49Z"></path><path class="cls-1" d="M191.66,88.49V64.76h21.18v4.15H195.77V84.35h17.1v4.14Zm7.15-10.31v-3.5H212v3.5Z"></path><path class="cls-1" d="M320.39,88c-6.63,0-11.52-5.23-11.52-12.11s4.89-11.62,11.52-11.62h12.86v4.14H320.39c-4.24,0-7.38,3.17-7.38,7.67s3.1,7.77,7.38,7.77h12.86V88Z"></path><path class="cls-1" d="M347.45,88c-6.62,0-11.52-5.23-11.52-12.11s4.9-11.62,11.52-11.62h5.78c6.85,0,11.62,4.73,11.62,11.62S360,88,353.23,88Zm5.78-4.15c4.37,0,7.47-3.29,7.47-7.77a7.29,7.29,0,0,0-7.47-7.67h-5.78c-4.24,0-7.37,3.17-7.37,7.67s3.1,7.77,7.37,7.77Z"></path><path class="cls-1" d="M368.22,88V83.8H386c2.22,0,3.46-1.24,3.46-3.1,0-2-1.24-3.07-3.46-3.07H375.1c-4.47,0-7.24-2.84-7.24-6.75s2.58-6.66,7.31-6.66h17v4.14h-17a2.89,2.89,0,1,0,0,5.78H386c4.8,0,7.38,2.25,7.38,6.85,0,4-2.42,7-7.38,7Z"></path><path class="cls-1" d="M425.57,88,421,71.27l-6.72,15.44a2.23,2.23,0,0,1-4.25,0l-6.69-15.44L398.84,88h-4.08l6.1-22.33a2,2,0,0,1,2.06-1.7A2.22,2.22,0,0,1,405,65.33l7.32,16.77,7.31-16.77a2.11,2.11,0,0,1,2-1.41,2,2,0,0,1,2,1.7L429.68,88Z"></path><path class="cls-1" d="M432.43,88V64.22h21.18v4.14H436.54V83.8h17.1V88Zm7.15-10.32V74.14h13.15v3.49Z"></path><path class="cls-1" d="M464.81,88V68.36h-9V64.22H478v4.14h-9V88Z"></path><path class="cls-1" d="M480.94,88V64.22h4.14V88Z"></path><path class="cls-1" d="M500.26,88c-6.62,0-11.52-5.23-11.52-12.11s4.9-11.62,11.52-11.62h12.86v4.14H500.26c-4.24,0-7.37,3.17-7.37,7.67s3.1,7.77,7.37,7.77h12.86V88Z"></path><path class="cls-1" d="M516.49,88V83.8h17.79c2.22,0,3.46-1.24,3.46-3.1,0-2-1.24-3.07-3.46-3.07H523.37c-4.47,0-7.24-2.84-7.24-6.75s2.58-6.66,7.31-6.66h17v4.14h-17a2.89,2.89,0,1,0,0,5.78h10.87c4.79,0,7.37,2.25,7.37,6.85,0,4-2.41,7-7.37,7Z"></path></svg>